<?xml version="1.0" standalone="no"?><!DOCTYPE svg PUBLIC "-//W3C//DTD SVG 1.1//EN" "http://www.w3.org/Graphics/SVG/1.1/DTD/svg11.dtd"><svg t="1768277471915" class="icon" viewBox="0 0 6247 1024" version="1.1" xmlns="http://www.w3.org/2000/svg" p-id="2699" xmlns:xlink="http://www.w3.org/1999/xlink" width="1220.1171875" height="200"><path d="M5497.025441 8.63398c-407.518861 0-737.855931 161.799786-737.855931 361.366995s330.33707 361.366995 737.855931 361.366995 737.806024-161.824739 737.806024-361.366995S5904.481918 8.63398 5497.025441 8.63398z m-102.921532 638.265718c-289.462911 0-524.189882-126.490301-524.189882-282.450921s234.627157-282.425967 524.189882-282.425968 524.177405 126.427917 524.177405 282.413491-234.677064 282.463398-524.177405 282.463398zM737.806024 8.63398C330.349547 8.63398 0 170.433765 0 370.000975s330.349547 361.366995 737.806024 361.366995 737.855931-161.824739 737.855931-361.366995S1145.374793 8.63398 737.806024 8.63398z m-102.921532 638.265718c-289.462911 0-524.189882-126.490301-524.189882-282.450921S345.371674 82.022809 634.884492 82.022809 1159.099327 208.450726 1159.099327 364.4363 924.384833 646.899698 634.884492 646.899698zM3962.185788 8.63398A1370.232576 1370.232576 0 0 0 3599.571108 55.297397v63.831563a890.622478 890.622478 0 0 1 259.718101-37.056243c289.462911 0 524.177405 126.440394 524.177406 282.41349s-234.639633 282.413491-524.152452 282.413491c-202.686422 0-378.185788-61.984989-465.673457-152.704162V0h-266.255971v1022.103519h266.505508v-421.717516a1154.93206 1154.93206 0 0 0 568.545082 131.00692c407.518861 0 737.806024-161.749878 737.806024-361.317087S4369.954187 8.733795 3962.435325 8.733795z m-1620.044059 0a1370.594405 1370.594405 0 0 0-362.839263 46.663417v63.831563a890.959353 890.959353 0 0 1 259.768009-37.056243c289.462911 0 524.189882 126.440394 524.189882 282.41349s-234.726971 282.413491-524.189882 282.413491c-202.736329 0-378.435325-61.984989-465.673458-152.704162V0h-266.305878v1022.103519h266.517985v-421.717516a1154.882152 1154.882152 0 0 0 568.532605 131.00692c407.518861 0 737.868408-161.749878 737.868408-361.317087S2749.660591 8.733795 2342.141729 8.733795z" fill="#05B570" p-id="2700"></path></svg>